<svg width="20" height="20" viewBox="0 0 20 20" fill="none" xmlns="http://www.w3.org/2000/svg">
<path d="M13.3333 3.75C13.3333 3.41848 13.465 3.10054 13.6995 2.86612C13.9339 2.6317 14.2518 2.5 14.5833 2.5H16.25C16.5815 2.5 16.8995 2.6317 17.1339 2.86612C17.3683 3.10054 17.5 3.41848 17.5 3.75V16.25C17.5 16.5815 17.3683 16.8995 17.1339 17.1339C16.8995 17.3683 16.5815 17.5 16.25 17.5H14.5833C14.2518 17.5 13.9339 17.3683 13.6995 17.1339C13.465 16.8995 13.3333 16.5815 13.3333 16.25V3.75ZM7.91667 8.75C7.91667 8.41848 8.04836 8.10054 8.28278 7.86612C8.5172 7.6317 8.83515 7.5 9.16667 7.5H10.8333C11.1649 7.5 11.4828 7.6317 11.7172 7.86612C11.9516 8.10054 12.0833 8.41848 12.0833 8.75V16.25C12.0833 16.5815 11.9516 16.8995 11.7172 17.1339C11.4828 17.3683 11.1649 17.5 10.8333 17.5H9.16667C8.83515 17.5 8.5172 17.3683 8.28278 17.1339C8.04836 16.8995 7.91667 16.5815 7.91667 16.25V8.75ZM3.75 12.5C3.41848 12.5 3.10054 12.6317 2.86612 12.8661C2.6317 13.1005 2.5 13.4185 2.5 13.75V16.25C2.5 16.5815 2.6317 16.8995 2.86612 17.1339C3.10054 17.3683 3.41848 17.5 3.75 17.5H5.41667C5.74819 17.5 6.06613 17.3683 6.30055 17.1339C6.53497 16.8995 6.66667 16.5815 6.66667 16.25V13.75C6.66667 13.4185 6.53497 13.1005 6.30055 12.8661C6.06613 12.6317 5.74819 12.5 5.41667 12.5H3.75Z" fill="#40798C"/>
</svg>
