<svg width="36" height="36" viewBox="0 0 36 36" fill="none" xmlns="http://www.w3.org/2000/svg">
<path d="M26.9999 27C27.5967 27 28.1689 26.7629 28.5909 26.341C29.0129 25.919 29.2499 25.3467 29.2499 24.75V19.2555C29.2499 18.6588 29.0129 18.0865 28.5909 17.6645C28.1689 17.2426 27.5967 17.0055 26.9999 17.0055H23.8769C23.8769 16.215 23.9234 15.4245 24.0164 14.634C24.1559 13.797 24.3884 13.053 24.7139 12.402C25.0394 11.751 25.4587 11.2387 25.9717 10.8653C26.4817 10.4467 27.1327 10.2375 27.9247 10.2375V6.75C26.6227 6.75 25.4827 7.029 24.5047 7.587C23.5334 8.13797 22.699 8.9009 22.0634 9.819C21.4235 10.8296 20.9524 11.9376 20.6684 13.0995C20.3813 14.3814 20.2409 15.6918 20.2499 17.0055V24.75C20.2499 25.3467 20.487 25.919 20.9089 26.341C21.3309 26.7629 21.9032 27 22.4999 27H26.9999ZM13.4999 27C14.0967 27 14.669 26.7629 15.0909 26.341C15.5129 25.919 15.7499 25.3467 15.7499 24.75V19.2555C15.7499 18.6588 15.5129 18.0865 15.0909 17.6645C14.669 17.2426 14.0967 17.0055 13.4999 17.0055H10.3769C10.3769 16.215 10.4234 15.4245 10.5164 14.634C10.6574 13.797 10.8899 13.053 11.2139 12.402C11.5394 11.751 11.9587 11.2387 12.4717 10.8653C12.9817 10.4467 13.6327 10.2375 14.4247 10.2375V6.75C13.1227 6.75 11.9827 7.029 11.0047 7.587C10.0334 8.13797 9.19899 8.9009 8.56342 9.819C7.92355 10.8296 7.45239 11.9376 7.16842 13.0995C6.88128 14.3814 6.74088 15.6918 6.74992 17.0055V24.75C6.74992 25.3467 6.98697 25.919 7.40893 26.341C7.83089 26.7629 8.40318 27 8.99992 27H13.4999Z" fill="#40798C"/>
</svg>
