<svg width="52" height="52" viewBox="0 0 52 52" fill="none" xmlns="http://www.w3.org/2000/svg">
<path d="M26 2.33594C25.6242 2.33594 25.2484 2.34609 24.8727 2.36336L24.9539 4.18945C25.2992 4.1732 25.6445 4.16406 26 4.16406C38.0656 4.16406 47.8359 13.9344 47.8359 26C47.8359 38.0656 38.0656 47.8359 26 47.8359C16.9 47.8359 9.10508 42.2805 5.82461 34.3687L8.63078 33.5258L3.71211 30.0422L1.77734 35.5773L4.06758 34.8969C7.58469 43.55 16.0875 49.6641 26 49.6641C39.0609 49.6641 49.6641 39.0609 49.6641 26C49.6641 12.9391 39.0609 2.33594 26 2.33594ZM22.8719 2.54313C21.5211 2.72086 20.2211 3.01031 18.9516 3.40438L19.5203 5.14008C20.6781 4.78055 21.8867 4.51547 23.1156 4.35297L22.8719 2.54313ZM17.0828 4.07875C15.8234 4.59164 14.625 5.20812 13.4875 5.91906L14.4523 7.46383C15.4984 6.80977 16.6055 6.24203 17.7633 5.77078L17.0828 4.07875ZM11.8219 7.05859C10.7556 7.85774 9.75851 8.74514 8.84102 9.71141L10.1664 10.9586C11.0094 10.0679 11.9336 9.25133 12.9086 8.515L12.4211 7.84773L11.8219 7.05859ZM18.8805 7.93L18.4336 9.70125L40.4727 15.3359L40.9195 13.5688L18.8805 7.93ZM7.52273 11.2227C6.69094 12.2586 5.94445 13.3758 5.29445 14.5437L6.88391 15.4375C7.48414 14.3508 8.17273 13.325 8.94156 12.3602L7.52273 11.2227ZM20.4852 12.1164C20.0891 14.757 20.7695 17.7227 21.9273 20.1602C22.5773 21.5211 23.3695 22.7195 24.1516 23.593C24.5781 24.0703 25.0047 24.4359 25.3906 24.7L24.8422 26.8531C24.375 26.8937 23.8266 27.0156 23.2172 27.2289C22.1102 27.6148 20.8406 28.2852 19.6219 29.1688C17.4281 30.7531 15.4172 33.018 14.5031 35.5266L31.5148 39.8836C31.9109 37.243 31.2305 34.2773 30.0727 31.8398C29.4227 30.4789 28.6305 29.2805 27.8484 28.407C27.4219 27.9297 26.9953 27.5641 26.6094 27.3L27.1578 25.1469C27.6148 25.0961 28.1734 24.9844 28.7828 24.7711C29.8898 24.3852 31.1594 23.7148 32.3781 22.8313C34.5719 21.2469 36.5828 18.982 37.4969 16.4734L20.4852 12.1164ZM4.39156 16.3414C3.85023 17.5602 3.40641 18.8195 3.07125 20.1297L4.84656 20.5562C5.1543 19.3578 5.56156 18.2 6.06023 17.0828L4.39156 16.3414ZM2.66094 22.0898C2.44867 23.3594 2.33594 24.6695 2.33594 26V26.0914L4.16406 26.0711V26C4.16406 24.7711 4.26766 23.5625 4.46367 22.3844L2.66094 22.0898ZM11.5273 36.6641L11.0805 38.4312L33.1195 44.068L33.5664 42.3008L11.5273 36.6641Z" fill="#40798C"/>
</svg>
