<svg width="48" height="49" viewBox="0 0 48 49" fill="none" xmlns="http://www.w3.org/2000/svg">
<g clip-path="url(#clip0_47_219)">
<path d="M24.96 22.7616V29.3216H40.64C40.16 33.0016 38.934 35.6956 37.066 37.5876C34.772 39.8816 31.2 42.3876 24.96 42.3876C15.306 42.3876 7.76001 34.6016 7.76001 24.9476C7.76001 15.2936 15.306 7.50763 24.96 7.50763C30.16 7.50763 33.974 9.56163 36.774 12.2016L41.388 7.58763C37.494 3.80163 32.266 0.921631 24.96 0.921631C11.734 0.921631 0.614014 11.6956 0.614014 24.9216C0.614014 38.1476 11.734 48.9216 24.96 48.9216C32.106 48.9216 37.494 46.5756 41.706 42.2016C46.026 37.8816 47.386 31.7756 47.386 26.8676C47.386 25.3476 47.28 23.9336 47.04 22.7616H24.96Z" fill="#575757"/>
</g>
<defs>
<clipPath id="clip0_47_219">
<rect width="48" height="48" fill="white" transform="translate(0 0.921631)"/>
</clipPath>
</defs>
</svg>
