<svg width="38" height="38" viewBox="0 0 38 38" fill="none" xmlns="http://www.w3.org/2000/svg">
<path d="M14.3687 25.7292L18.9999 22.9188L23.6312 25.7292L22.4041 20.4646L26.5208 16.9021L21.0979 16.4667L18.9999 11.4792L16.902 16.4667L11.4791 16.9021L15.5958 20.4646L14.3687 25.7292ZM18.9999 36.8917L13.6958 31.6667H6.33328V24.3042L1.10828 19L6.33328 13.6958V6.33334H13.6958L18.9999 1.10834L24.3041 6.33334H31.6666V13.6958L36.8916 19L31.6666 24.3042V31.6667H24.3041L18.9999 36.8917ZM18.9999 32.4583L22.9583 28.5H28.4999V22.9583L32.4583 19L28.4999 15.0417V9.5H22.9583L18.9999 5.54167L15.0416 9.5H9.49994V15.0417L5.54161 19L9.49994 22.9583V28.5H15.0416L18.9999 32.4583Z" fill="#40798C"/>
</svg>
